<svg width="40" height="35" viewBox="0 0 40 35" fill="none" xmlns="http://www.w3.org/2000/svg">
<path d="M16.3233 23.3667L17.251 25.6861C16.3526 26.045 15.4566 26.3184 14.5826 26.5016L14.0723 24.0552C14.8047 23.9014 15.5616 23.6695 16.3233 23.3667ZM8.8843 26.3623C9.79984 26.626 10.7642 26.7677 11.7505 26.7823L11.7896 24.2823C11.023 24.2701 10.2784 24.1627 9.57523 23.96L8.8843 26.3623ZM28.5694 21.9995C29.2896 22.1412 29.9927 22.3877 30.6592 22.732L31.8067 20.5102C30.9278 20.0586 30.0025 19.7338 29.0528 19.5483L28.5694 21.9995ZM23.3545 19.9487L24.1016 22.3316C24.8658 22.0923 25.6202 21.9409 26.3477 21.8823L26.1475 19.3921C25.2344 19.4653 24.2945 19.6534 23.3545 19.9487ZM19.3409 21.8286C19.0601 22.0044 18.7842 22.1655 18.5132 22.3169L19.7291 24.4995C20.0342 24.3286 20.3467 24.148 20.6592 23.9527C21.0889 23.6866 21.5088 23.4497 21.9214 23.2398L20.7862 21.0132C20.3174 21.2524 19.834 21.5234 19.3409 21.8286ZM26.25 6.25C26.25 7.27055 26.0059 8.23734 25.5713 9.08695L20 20C20 20 14.3848 8.99656 14.3628 8.95016C13.9698 8.13477 13.75 7.2168 13.75 6.25C13.75 2.79781 16.5479 0 20 0C23.4521 0 26.25 2.79789 26.25 6.25ZM23.75 6.25C23.75 4.17969 22.0703 2.5 20 2.5C17.9297 2.5 16.25 4.17969 16.25 6.25C16.25 8.32031 17.9297 10 20 10C22.0703 10 23.75 8.32031 23.75 6.25ZM32.5 12.5H26.6357L25.3588 15H30.6982L33.3959 23.0957L32.5341 24.0479C33.4521 24.878 33.9282 25.6421 33.9306 25.6446L34.1943 25.4859L36.5308 32.5H3.4668L5.97172 24.9927C6.05961 25.0537 6.12797 25.1123 6.22563 25.1734L7.55375 23.0591C7.25586 22.8711 7.01172 22.6855 6.79688 22.5122L9.3018 15H14.6436C14.1138 13.9648 13.6963 13.147 13.3667 12.5H7.5L0 35H40L32.5 12.5Z" fill="#007BAF"/>
</svg>
